<?xml version="1.0" encoding="UTF-8" standalone="no"?>
<!-- Created with Inkscape (http://www.inkscape.org/) -->

<svg
   width="210mm"
   height="297mm"
   viewBox="0 0 210 297"
   version="1.1"
   id="svg1"
   xml:space="preserve"
   inkscape:version="1.4 (e7c3feb100, 2024-10-09)"
   sodipodi:docname="symbol.svg"
   xmlns:inkscape="http://www.inkscape.org/namespaces/inkscape"
   xmlns:sodipodi="http://sodipodi.sourceforge.net/DTD/sodipodi-0.dtd"
   xmlns="http://www.w3.org/2000/svg"
   xmlns:svg="http://www.w3.org/2000/svg"><sodipodi:namedview
     id="namedview1"
     pagecolor="#ffffff"
     bordercolor="#000000"
     borderopacity="0.25"
     inkscape:showpageshadow="2"
     inkscape:pageopacity="0.0"
     inkscape:pagecheckerboard="0"
     inkscape:deskcolor="#d1d1d1"
     inkscape:document-units="mm"
     inkscape:zoom="0.55811637"
     inkscape:cx="252.63549"
     inkscape:cy="711.32119"
     inkscape:window-width="1920"
     inkscape:window-height="1131"
     inkscape:window-x="0"
     inkscape:window-y="32"
     inkscape:window-maximized="1"
     inkscape:current-layer="layer1" /><defs
     id="defs1" /><g
     inkscape:label="Kiht 1"
     inkscape:groupmode="layer"
     id="layer1"><g
       id="g8"
       transform="translate(2.3703241,-1.4221945)"><path
         style="fill:#000000"
         d="m 76.170733,223.75237 c -0.0776,-0.34939 -0.3279,-2.064 -0.55624,-3.81025 -1.21531,-9.29412 -4.01098,-19.29672 -7.37237,-26.37751 -0.53155,-1.11971 -1.92345,-3.48425 -3.09312,-5.25452 -1.16967,-1.77028 -2.0785,-3.26686 -2.01962,-3.32574 0.0589,-0.0589 1.59427,0.18886 3.41197,0.55053 4.90136,0.97525 9.00561,2.51595 11.79356,4.4272 0.80925,0.55477 1.1599,0.67534 1.24315,0.42743 0.0638,-0.18992 0.54858,-2.54796 1.07734,-5.2401 0.52876,-2.69213 2.68313,-12.62288 4.78748,-22.06833 2.10435,-9.44545 3.79122,-17.31107 3.74859,-17.47916 -0.0426,-0.16809 -5.43444,4.00884 -11.98182,9.28207 -6.54738,5.27323 -11.940228,9.55179 -11.9841,9.5079 -0.07631,-0.0763 8.275958,-55.84526 10.668346,-71.241991 0.86503,-0.564532 6.43617,-3.671995 6.43617,-3.671995 0,0 -1.623096,12.832336 -4.209846,29.904506 -2.50551,16.53594 -4.48881,30.13201 -4.40733,30.21349 0.0815,0.0815 5.70967,-4.33126 12.5071,-9.80609 6.79743,-5.47482 12.40367,-9.90953 12.4583,-9.85489 0.18672,0.18671 -3.63785,18.23248 -7.58047,35.76762 -2.79943,12.45065 -5.62598,25.81482 -5.48889,25.95191 0.046,0.046 1.15104,-0.10331 2.45575,-0.3317 2.96351,-0.51875 7.44695,-0.34554 11.76492,0.4545 1.673477,0.31007 3.068837,0.58905 3.100777,0.61996 0.0319,0.0309 -1.39681,1.08564 -3.174997,2.34385 -7.37935,5.22148 -14.84759,14.27477 -21.31286,25.83631 -1.75844,3.14453 -2.15536,3.69926 -2.27179,3.175 z M 135.49681,194.9541 c -4.65584,-2.71748 -8.6833,-5.87097 -12.88807,-10.09133 -4.74664,-4.76422 -9.08086,-10.45692 -11.26411,-14.79461 -2.34158,-4.65227 -5.41512,-15.07703 -7.80072,-26.45833 -0.44228,-2.11005 -0.8649,-4.10038 -0.93914,-4.42294 -0.13059,-0.56734 -0.0637,-0.556 2.05064,0.3474 9.84341,4.20591 22.53338,13.78092 27.50982,20.75707 4.78774,6.71163 6.62372,14.34639 6.00969,24.99075 -0.12591,2.18259 -0.31048,5.48639 -0.41016,7.34178 -0.0997,1.85539 -0.25221,3.37133 -0.33894,3.36876 -0.0867,-0.003 -0.95478,-0.46992 -1.92901,-1.03855 z m -31.30159,-59.03693 c 4.99622,-3.21592 9.70116,-8.30562 12.36651,-13.37779 1.31546,-2.50332 2.73804,-6.86273 3.129,-9.5886 0.19756,-1.37743 0.26166,-3.63078 0.16934,-5.95313 -0.53165,-13.373598 -7.09396,-20.545386 -19.65624,-21.481791 -2.687227,-0.200309 -7.321457,0.220697 -10.373447,0.942398 l -2.03933,0.482237 1.05834,-0.926376 c 1.75853,-1.539276 6.40315,-4.536822 9.21978,-5.950274 5.148067,-2.583421 9.908237,-3.775159 14.857297,-3.719616 5.55683,0.06236 9.94759,1.791366 13.79314,5.431502 4.32813,4.096941 7.08416,9.617593 7.79028,15.604856 1.07711,9.132964 -3.90802,21.411574 -12.05842,29.700444 -3.14357,3.19698 -6.23093,5.45256 -9.78958,7.15214 -3.06728,1.46491 -5.232,2.10108 -8.0698,2.37159 l -1.71979,0.16394 z"
         id="path8"
         sodipodi:nodetypes="sssssssssssssccssssssssssssssssscssscssssssscsssssssscs" /></g></g><g
     inkscape:groupmode="layer"
     id="layer2"
     inkscape:label="svg" /></svg>
